<svg width="32" height="32" viewBox="0 0 32 32" fill="none" xmlns="http://www.w3.org/2000/svg">
<path d="M11.1719 25.6591V4.73136L30.4897 1.51172V22.4394" stroke="white" stroke-width="2.5" stroke-linecap="round" stroke-linejoin="round"/>
<path d="M6.33728 30.489C9.00452 30.489 11.1667 28.3268 11.1667 25.6595C11.1667 22.9923 9.00452 20.8301 6.33728 20.8301C3.67004 20.8301 1.50781 22.9923 1.50781 25.6595C1.50781 28.3268 3.67004 30.489 6.33728 30.489Z" stroke="white" stroke-width="2.5" stroke-linecap="round" stroke-linejoin="round"/>
<path d="M25.6576 27.2683C28.3248 27.2683 30.4871 25.1061 30.4871 22.4388C30.4871 19.7716 28.3248 17.6094 25.6576 17.6094C22.9904 17.6094 20.8281 19.7716 20.8281 22.4388C20.8281 25.1061 22.9904 27.2683 25.6576 27.2683Z" stroke="white" stroke-width="2.5" stroke-linecap="round" stroke-linejoin="round"/>
</svg>
