<svg width="44" height="25" viewBox="0 0 44 25" fill="none" xmlns="http://www.w3.org/2000/svg">
<path d="M28.7152 2H32.194C33.1167 2 34.0015 2.36652 34.6539 3.01893C35.3063 3.67134 35.6729 4.5562 35.6729 5.47884V19.3942C35.6729 20.3169 35.3063 21.2017 34.6539 21.8541C34.0015 22.5065 33.1167 22.873 32.194 22.873H26.6453M8.32096 22.873H4.84212C3.91948 22.873 3.03462 22.5065 2.38221 21.8541C1.7298 21.2017 1.36328 20.3169 1.36328 19.3942V5.47884C1.36328 4.5562 1.7298 3.67134 2.38221 3.01893C3.03462 2.36652 3.91948 2 4.84212 2H10.3909L8.32096 22.873Z" stroke="white" stroke-width="2.5" stroke-linecap="round" stroke-linejoin="round"/>
<path d="M42.6367 14.1761V10.6973" stroke="white" stroke-width="2.5" stroke-linecap="round" stroke-linejoin="round"/>
<path d="M21.7624 2L14.8047 12.4365H25.2412L18.2835 22.873" stroke="white" stroke-width="2.5" stroke-linecap="round" stroke-linejoin="round"/>
</svg>
