<svg width="32" height="32" viewBox="0 0 32 32" fill="none" xmlns="http://www.w3.org/2000/svg">
<path d="M4.97575 5.6138L4.97569 5.61374L4.97225 5.61736C2.8571 7.84614 1.44678 10.7344 1.01097 13.7788C0.91906 14.3863 0.876598 14.998 0.850142 15.6059L0.85 15.6059V15.6124V16.4392H0.849914L0.850086 16.4443C0.925794 18.6741 1.47407 20.8914 2.49665 22.8798C3.21142 24.2785 4.14894 25.5621 5.25596 26.6752C5.42459 26.8521 5.67981 26.9705 5.94709 26.9272C6.35893 26.8767 6.67023 26.4646 6.60324 26.0532C6.57715 25.8063 6.40372 25.6267 6.2831 25.5019L6.27533 25.4938L6.27424 25.4927C4.70564 23.9003 3.54198 21.9114 2.92782 19.7618L2.92778 19.7617C2.24974 17.3978 2.22712 14.8485 2.8623 12.4724L2.86234 12.4723C3.44406 10.2862 4.59148 8.25382 6.16004 6.62384L6.16122 6.62259C6.18197 6.60054 6.20542 6.57664 6.2303 6.55129C6.29859 6.48169 6.37761 6.40117 6.44076 6.3178C6.5306 6.1992 6.60735 6.05294 6.61028 5.87119C6.64141 5.4263 6.23772 5.02899 5.79451 5.06518C5.58736 5.07318 5.42785 5.17157 5.30102 5.28186C5.23748 5.3371 5.17935 5.39779 5.12645 5.45457C5.11401 5.46794 5.10194 5.48098 5.09016 5.49371C5.05021 5.53689 5.01346 5.57661 4.97575 5.6138Z" fill="white" stroke="white" stroke-width="0.3"/>
<path d="M31.1481 15.6137H31.1482L31.1481 15.6092C31.0812 13.3764 30.5401 11.1544 29.5217 9.16073C28.8044 7.74342 27.8567 6.44496 26.7379 5.31942C26.5688 5.14329 26.316 5.03059 26.0534 5.07109C25.6432 5.121 25.3261 5.53061 25.3944 5.9446C25.4109 6.09082 25.4761 6.21018 25.55 6.30834C25.6085 6.3861 25.6792 6.45862 25.74 6.52096C25.7543 6.53567 25.7681 6.54981 25.781 6.56332L25.781 6.56332L25.782 6.56436C27.9431 8.77704 29.2998 11.7553 29.5466 14.8393L29.5467 14.8401C29.7583 17.3192 29.2851 19.8571 28.1648 22.0799L28.1645 22.0804C27.5193 23.3714 26.6592 24.5528 25.6445 25.5803C25.3532 25.8439 25.2917 26.3261 25.5545 26.643C25.8289 27.0031 26.4026 27.0332 26.7126 26.702C28.5727 24.85 29.9426 22.5063 30.6232 19.9689C30.943 18.8001 31.1043 17.5944 31.148 16.389L31.1481 16.389V16.3836V15.6137Z" fill="white" stroke="white" stroke-width="0.3"/>
<path d="M16.5872 8.74219L11.6484 16.1503H19.0565L14.1178 23.5584" stroke="white" stroke-width="1.83371" stroke-linecap="round" stroke-linejoin="round"/>
<path d="M6.18723 15.1339L6.1873 15.133C6.37126 12.9082 7.35286 10.7597 8.91464 9.16418C9.08554 9.00121 9.29079 8.75233 9.2572 8.43325C9.23647 7.96942 8.75556 7.61955 8.30883 7.73571C8.16635 7.76873 8.04125 7.84411 7.94266 7.94059L7.94266 7.94058L7.94176 7.94148C6.80666 9.07123 5.91003 10.4421 5.34157 11.9413C4.53329 14.0551 4.38567 16.4099 4.89913 18.6111C5.37844 20.6791 6.45791 22.6023 7.97236 24.0894L7.97233 24.0894L7.97482 24.0918C8.29847 24.3955 8.85688 24.3309 9.10906 23.9708C9.35169 23.6537 9.28558 23.1896 9.00345 22.9319C8.37479 22.2935 7.8264 21.5758 7.39176 20.794L7.39135 20.7933C6.42988 19.0867 6.01462 17.085 6.18723 15.1339Z" fill="white" stroke="white" stroke-width="0.3"/>
<path d="M24.8045 20.418L24.8042 20.4187C24.3353 21.3577 23.7045 22.2134 22.9669 22.9623C22.6737 23.2437 22.6606 23.7472 22.9477 24.0398C23.2328 24.3552 23.7667 24.367 24.0612 24.0542C24.7501 23.3644 25.3533 22.588 25.8464 21.746C27.4851 18.9784 27.8416 15.5066 26.8382 12.4558C26.2876 10.7567 25.3211 9.19842 24.0568 7.93936C23.8653 7.74532 23.5715 7.66725 23.3088 7.74026C22.9262 7.83877 22.664 8.25096 22.7546 8.64349C22.7776 8.77254 22.8388 8.87738 22.9056 8.96381C22.9572 9.03052 23.0185 9.09357 23.0713 9.14789C23.0853 9.16232 23.0987 9.17613 23.1112 9.18924L23.1112 9.18924L23.1121 9.19011C24.6698 10.7986 25.644 12.9578 25.8154 15.191L25.8154 15.1917C25.9621 16.983 25.6161 18.8145 24.8045 20.418Z" fill="white" stroke="white" stroke-width="0.3"/>
</svg>
