<svg width="32" height="32" viewBox="0 0 32 32" fill="none" xmlns="http://www.w3.org/2000/svg">
<g clip-path="url(#clip0_4940_3632)">
<path d="M15.8239 0H16.0277C16.4908 0.049375 16.8802 0.463125 16.8739 0.9325C16.8764 2.18563 16.8764 3.43875 16.8739 4.69187C16.8795 5.16625 16.4777 5.59437 16.0045 5.62187C15.4839 5.67125 14.9902 5.21375 15.0014 4.69C14.9995 3.43875 14.9995 2.18688 15.0014 0.935C14.9927 0.47125 15.3714 0.065625 15.8239 0Z" fill="white"/>
<path d="M7.20524 2.34171C7.60837 2.20609 8.08337 2.38796 8.29649 2.75484C8.93149 3.85234 9.56774 4.94921 10.1971 6.04984C10.4515 6.51296 10.2184 7.15421 9.72587 7.34484C9.30462 7.52734 8.77274 7.34484 8.55149 6.94359C7.91899 5.84421 7.27962 4.74984 6.65212 3.64796C6.39337 3.16109 6.67462 2.49296 7.20524 2.34171Z" fill="white"/>
<path d="M24.2109 2.34707C24.5703 2.22332 25.0015 2.3427 25.2334 2.64707C25.4859 2.9477 25.5059 3.4052 25.3003 3.73645C24.6809 4.8077 24.0634 5.8802 23.4428 6.95082C23.2384 7.31645 22.7716 7.5027 22.3716 7.3802C21.9403 7.2677 21.6415 6.80895 21.7034 6.36957C21.7228 6.14707 21.8515 5.95895 21.9603 5.77082C22.5315 4.78082 23.1034 3.79082 23.6747 2.80082C23.789 2.5902 23.9822 2.42207 24.2109 2.34707Z" fill="white"/>
<path d="M12.4039 8.22135C14.2483 7.4451 16.3452 7.29448 18.2846 7.78198C20.1364 8.24073 21.8308 9.29323 23.0789 10.7345C24.2989 12.1339 25.0902 13.902 25.3077 15.7464C25.3964 16.4314 25.3752 17.1239 25.3777 17.8132C25.3777 20.6457 25.3771 23.4789 25.3777 26.312C26.0252 26.317 26.6733 26.3051 27.3202 26.3176C27.7939 26.3407 28.1946 26.772 28.1889 27.2451C28.1914 28.5182 28.1908 29.7914 28.1889 31.0645C28.1958 31.5351 27.8077 31.9482 27.3452 32.0001H4.66895C4.17832 31.9539 3.7802 31.4957 3.81457 31.002C3.81707 29.7495 3.81332 28.4964 3.81645 27.2439C3.80832 26.7488 4.2502 26.307 4.74457 26.3139C5.37207 26.3095 5.99957 26.3145 6.62707 26.312C6.62832 23.3539 6.6277 20.3957 6.6277 17.4376C6.62707 16.9389 6.6227 16.4389 6.6752 15.9426C6.8252 14.3995 7.37207 12.8976 8.24645 11.617C9.2652 10.1151 10.7271 8.91635 12.4039 8.22135ZM14.9321 9.4526C13.1914 9.69698 11.5552 10.5864 10.3939 11.9032C9.1977 13.2395 8.51082 15.0182 8.50395 16.8126C8.50082 19.9789 8.50332 23.1457 8.5027 26.3126C13.5027 26.3126 18.5027 26.3126 23.5027 26.3126C23.5027 23.1882 23.5027 20.0639 23.5027 16.9395C23.5039 16.2457 23.4183 15.5501 23.2314 14.8814C22.7471 13.1051 21.5764 11.5307 20.0221 10.5464C18.5302 9.5851 16.6864 9.19635 14.9321 9.4526ZM5.6902 28.1876C5.6902 28.8332 5.6902 29.4789 5.6902 30.1251C12.5652 30.1251 19.4402 30.1251 26.3152 30.1251C26.3152 29.4789 26.3152 28.8332 26.3152 28.1876C19.4402 28.1876 12.5652 28.1876 5.6902 28.1876Z" fill="white"/>
<path d="M1.08993 8.5405C1.32868 8.47613 1.59056 8.51488 1.80368 8.638C2.84868 9.23675 3.88931 9.84363 4.93431 10.4424C5.17431 10.5643 5.38306 10.7668 5.46368 11.0293C5.59431 11.413 5.44368 11.8761 5.09868 12.0949C4.79931 12.3018 4.38368 12.3049 4.07556 12.1149C3.03181 11.5099 1.98681 10.9068 0.941182 10.3049C0.636807 10.1555 0.410557 9.84613 0.393682 9.50363C0.356182 9.06863 0.668057 8.64363 1.08993 8.5405Z" fill="white"/>
<path d="M30.4008 8.54998C30.8783 8.39185 31.4464 8.69498 31.572 9.18373C31.6977 9.58935 31.5033 10.0569 31.1339 10.2625C30.0533 10.8887 28.9714 11.5125 27.8889 12.135C27.4808 12.3737 26.9139 12.2412 26.6527 11.8481C26.3258 11.3956 26.522 10.6994 27.0264 10.4694C28.0714 9.86623 29.117 9.26373 30.1614 8.65873C30.237 8.61498 30.3164 8.57435 30.4008 8.54998Z" fill="white"/>
</g>
<defs>
<clipPath id="clip0_4940_3632">
<rect width="32" height="32" fill="white"/>
</clipPath>
</defs>
</svg>
