<svg width="32" height="32" viewBox="0 0 32 32" fill="none" xmlns="http://www.w3.org/2000/svg">
<g clip-path="url(#clip0_4940_3643)">
<path d="M32 13.0558L32 18.9302C31.9475 19.3502 31.8081 19.7664 31.545 20.1027C31.1425 20.6433 30.4856 20.9833 29.8119 20.9964C29.2081 21.0045 28.6044 20.9964 28 20.9995C27.9937 21.4527 28.0131 21.907 27.9881 22.3595C27.92 23.3345 27.3044 24.2427 26.4337 24.6814C26.0125 24.9002 25.5369 25.0027 25.0637 24.9995C17.855 24.9995 10.6469 24.9995 3.43812 24.9995C2.89375 25.0083 2.33125 25.0127 1.82 24.7964C0.77375 24.3958 0.0293744 23.3395 -6.65352e-07 22.2195L-1.21583e-07 9.77954C0.0312499 8.57204 0.898125 7.44579 2.06187 7.11829C2.50687 6.97766 2.9775 6.99891 3.4375 6.99954C10.6669 7.00016 17.8962 6.99766 25.1256 7.00079C26.3144 6.98454 27.4494 7.79204 27.8331 8.91579C28.0813 9.58266 27.9781 10.3045 28 10.9995C28.605 11.002 29.2094 10.9945 29.8137 11.0027C30.4562 11.0145 31.0819 11.3258 31.4869 11.8233C31.7794 12.1702 31.9419 12.6089 32 13.0558ZM29.7556 13.002C29.1706 12.9958 28.5856 13.0014 28 12.9995C28 14.9995 28 16.9995 28 18.9995C28.5856 18.9977 29.1706 19.0039 29.7556 18.997C29.8831 18.9983 30.005 18.882 29.9975 18.752C30.0031 16.937 29.9987 15.122 30 13.3077C30.0244 13.1602 29.9106 12.9983 29.7556 13.002ZM25.9687 9.65079C25.8706 9.25391 25.47 8.97266 25.0644 8.99954C17.6875 8.99954 10.3106 8.99954 2.93375 8.99954C2.44813 8.96266 1.99063 9.38329 2.0025 9.87391C1.99875 13.9602 1.99812 18.0464 2.0025 22.132C1.99437 22.6208 2.45062 23.0352 2.93375 22.9989C10.31 23.0002 17.6862 22.9995 25.0625 22.9995C25.5494 23.037 26.0094 22.6189 25.9975 22.1277C26.0037 18.0845 25.9975 14.0414 26.0006 9.99829C25.9994 9.88204 25.9981 9.76391 25.9687 9.65079Z" fill="white"/>
<path d="M13.4841 11.8281C13.5066 11.9894 13.4984 12.1519 13.4991 12.3144C13.4978 14.8775 13.5009 17.4412 13.4978 20.0044C13.5103 20.5362 13.0284 21.01 12.4984 20.9981C11.9666 21.0112 11.4872 20.5319 11.5003 19.9994C11.4984 17.3306 11.4978 14.6619 11.5003 11.9931C11.4928 11.4887 11.9253 11.0244 12.4303 11.0019C12.9259 10.9556 13.4109 11.3369 13.4841 11.8281Z" fill="white"/>
<path d="M9.48272 11.8205C9.50709 11.9836 9.49834 12.1492 9.49897 12.3136C9.49772 14.8761 9.50085 17.438 9.49772 20.0005C9.51147 20.5092 9.07209 20.9717 8.56584 20.9961C8.14209 21.033 7.7246 20.7598 7.57022 20.3673C7.4871 20.1717 7.49834 19.9542 7.49834 19.7467C7.50084 17.163 7.49709 14.5792 7.50022 11.9955C7.49209 11.4898 7.92584 11.0242 8.43209 11.0017C8.92397 10.9567 9.40522 11.333 9.48272 11.8205Z" fill="white"/>
<path d="M5.48172 11.8219C5.51797 12.8582 5.48734 13.8976 5.49734 14.9357C5.49672 16.6238 5.49922 18.3119 5.4961 20.0007C5.5111 20.5326 5.02985 21.0088 4.49985 20.9982C3.96735 21.0126 3.48672 20.5344 3.49859 20.0019C3.49547 17.3751 3.49922 14.7476 3.4961 12.1207C3.4736 11.8051 3.5836 11.4794 3.82235 11.2657C4.1586 10.9357 4.73422 10.9113 5.10172 11.2026C5.30047 11.3519 5.43859 11.5776 5.48172 11.8219Z" fill="white"/>
</g>
<defs>
<clipPath id="clip0_4940_3643">
<rect width="32" height="32" fill="white" transform="translate(32) rotate(90)"/>
</clipPath>
</defs>
</svg>
