<svg width="16" height="16" viewBox="0 0 16 16" fill="none" xmlns="http://www.w3.org/2000/svg">
<path d="M14.4087 4.17574H10.6093V5.19887H14.4237L14.4087 4.17574ZM13.6068 11.2143C13.3186 11.3992 12.9782 11.493 12.6326 11.4827C12.4038 11.5058 12.1726 11.4829 11.9534 11.4155C11.7342 11.3481 11.5317 11.2376 11.3586 11.0909C11.0387 10.7396 10.8721 10.2817 10.894 9.81381H15.855C15.8907 9.32659 15.8478 8.83695 15.7276 8.36257C15.6113 7.91125 15.4079 7.48531 15.1281 7.10725C14.8464 6.74052 14.4826 6.44034 14.0639 6.22925C13.5982 6.00687 13.0844 5.89495 12.5652 5.90272C12.0768 5.89925 11.5927 5.99054 11.1413 6.1712C10.728 6.3399 10.3536 6.58656 10.0397 6.89682C9.72677 7.21327 9.48444 7.58871 9.3278 7.99976C9.15971 8.44351 9.07593 8.91305 9.0805 9.38569C9.07279 9.86504 9.15401 10.3418 9.32031 10.7934C9.46155 11.2023 9.68577 11.5798 9.97977 11.9036C10.284 12.2215 10.6578 12.4695 11.0739 12.6292C11.5378 12.8004 12.0313 12.8841 12.5277 12.8759C13.2242 12.8969 13.9119 12.7204 14.5061 12.368C15.1063 11.955 15.5384 11.3518 15.7276 10.6628H14.0714C13.9828 10.8907 13.8196 11.0844 13.6068 11.2143ZM11.0364 8.2247C11.0947 8.04379 11.1916 7.87672 11.3206 7.73424C11.4497 7.59177 11.6082 7.47706 11.7858 7.39749C12.0211 7.29495 12.2773 7.24534 12.5352 7.25237C12.7215 7.23696 12.909 7.26076 13.085 7.32213C13.2609 7.3835 13.421 7.481 13.5544 7.60792C13.809 7.90973 13.9724 8.27389 14.0265 8.66007H10.9165C10.9286 8.51261 10.9563 8.36673 10.9989 8.2247H11.0364ZM7.07214 7.8764C7.45355 7.72262 7.78497 7.47191 8.03136 7.15078C8.25784 6.80975 8.37035 6.40944 8.35359 6.0043C8.36828 5.63485 8.29388 5.26716 8.13627 4.93039C8.00386 4.63863 7.79131 4.38764 7.52177 4.20477C7.23599 4.01464 6.91147 3.88598 6.57005 3.82745C6.16599 3.74539 5.75386 3.70646 5.34105 3.71135H0.867188V12.8396H5.43847C5.85565 12.8399 6.27116 12.7887 6.67496 12.6873C7.05771 12.5914 7.42032 12.4318 7.74659 12.2156C8.06264 12.0035 8.31998 11.7194 8.49598 11.3884C8.69075 11.0182 8.78611 10.6064 8.77325 10.1911C8.78745 9.67647 8.63837 9.16997 8.3461 8.73989C8.0318 8.30737 7.56563 8.00042 7.03467 7.8764H7.07214ZM2.943 5.27143H4.88392C5.06223 5.27122 5.24024 5.28578 5.41599 5.31497C5.57782 5.33819 5.73323 5.39246 5.87311 5.4746C6.00826 5.54863 6.11777 5.65971 6.18786 5.79387C6.27465 5.95476 6.31601 6.13499 6.30776 6.31632C6.32172 6.4725 6.29706 6.62966 6.23581 6.77477C6.17456 6.91988 6.07849 7.04878 5.95555 7.15078C5.68735 7.32931 5.36644 7.41845 5.04129 7.40475H2.943V5.27143ZM6.57005 10.67C6.49305 10.8179 6.37663 10.9432 6.23282 11.0328C6.08317 11.123 5.91828 11.1868 5.74572 11.2215C5.55392 11.2631 5.35772 11.2826 5.16119 11.2796H2.91302V8.77617H5.16119C5.54699 8.75981 5.92798 8.86412 6.24781 9.07368C6.3923 9.19923 6.50423 9.35596 6.57453 9.53119C6.64484 9.70642 6.67154 9.89521 6.65248 10.0823C6.67274 10.2817 6.64451 10.483 6.57005 10.67Z" fill="#1E2126"/>
</svg>
