<svg width="16" height="16" viewBox="0 0 16 16" fill="none" xmlns="http://www.w3.org/2000/svg">
<path fill-rule="evenodd" clip-rule="evenodd" d="M4.55108 2.79267C4.55108 3.60245 3.93046 4.2504 2.93395 4.2504H2.91568C1.95622 4.2504 1.33594 3.60245 1.33594 2.79267C1.33594 1.96576 1.97511 1.33594 2.95278 1.33594C3.93046 1.33594 4.53253 1.96576 4.55108 2.79267ZM4.36312 5.39844V13.832H1.50521V5.39844H4.36312ZM14.6668 13.8347L14.6669 8.99918C14.6669 6.40875 13.257 5.20312 11.3763 5.20312C9.85898 5.20312 9.17963 6.02169 8.80032 6.59593V5.40139H5.94206C5.97973 6.19275 5.94206 13.835 5.94206 13.835H8.80032V9.12496C8.80032 8.87291 8.81886 8.62147 8.89443 8.44101C9.10098 7.93747 9.57127 7.41612 10.3608 7.41612C11.3954 7.41612 11.809 8.18946 11.809 9.32277V13.8347H14.6668Z" fill="#1E2126"/>
</svg>
